<svg id="Ebene_1" data-name="Ebene 1" xmlns="http://www.w3.org/2000/svg" viewBox="0 0 100 100.13"><defs><style>.cls-1{fill:#e40606;}.cls-2{fill:#fff;}</style></defs><title>logo-new-big</title><rect class="cls-1" width="100" height="100"/><path class="cls-2" d="M52.2,100.13c-23.88,0-38.88-16.8-38.88-39.24V58.25c0-23.87,16.2-39.71,37.8-39.71,16.32,0,31.56,7.56,33.12,25.2v1.08H73c-1.32-11.28-10.08-16-21.72-16-16.92,0-26.52,13-26.52,30.59,0,17.4,9.48,30.48,29.16,30.48a30.51,30.51,0,0,0,21.48-8.4V67.25H52.44V57.17H86.52V84.41C79.2,93.53,67.32,100.13,52.2,100.13Z"/></svg>